<svg width="193" height="97" viewBox="0 0 193 97" fill="none" xmlns="http://www.w3.org/2000/svg">
<g filter="url(#filter0_d_2007_18271)">
<g filter="url(#filter1_d_2007_18271)">
<path d="M10.9296 32.9355C11.0707 31.3909 12.366 30.2085 13.9171 30.2085H179.363C181.128 30.2085 182.511 31.7242 182.351 33.4815L177.72 84.159C177.579 85.7036 176.284 86.886 174.733 86.886H9.28663C7.52198 86.886 6.13849 85.3703 6.29906 83.613L10.9296 32.9355Z" fill="#EFC609"/>
<path d="M179.363 29.4087C181.528 29.4088 183.241 31.2101 183.161 33.3462L183.147 33.5542L178.517 84.2319C178.338 86.1884 176.697 87.686 174.732 87.686H9.28711C7.05202 87.686 5.29878 85.7663 5.50195 83.5405L10.1328 32.8628L10.1543 32.6812C10.4147 30.8143 12.0136 29.4088 13.917 29.4087H179.363Z" stroke="black" stroke-width="1.6"/>
</g>
<g filter="url(#filter2_d_2007_18271)">
<mask id="path-3-outside-1_2007_18271" maskUnits="userSpaceOnUse" x="67.8252" y="46.9536" width="55" height="20" fill="black">
<rect fill="white" x="67.8252" y="46.9536" width="55" height="20"/>
<path d="M71.1132 65.0016C69.6572 65.0016 68.9292 64.8416 68.9292 64.5216V48.9696C68.9292 48.4256 69.1772 48.1536 69.6732 48.1536H73.8972C76.2652 48.1536 77.9692 48.6416 79.0092 49.6176C80.0652 50.5936 80.5932 52.0096 80.5932 53.8656C80.5932 55.4016 80.0972 56.8096 79.1052 58.0896C78.6092 58.7296 77.8812 59.2416 76.9212 59.6256C75.9612 60.0096 74.8412 60.2016 73.5612 60.2016V64.4976C73.5612 64.6896 73.2572 64.8256 72.6492 64.9056C72.0572 64.9696 71.5452 65.0016 71.1132 65.0016ZM73.5612 52.3296V56.1216H73.8732C74.4332 56.1216 74.9052 55.9456 75.2892 55.5936C75.6732 55.2416 75.8652 54.7456 75.8652 54.1056C75.8652 53.4656 75.7292 53.0096 75.4572 52.7376C75.2012 52.4656 74.7372 52.3296 74.0652 52.3296H73.5612ZM82.2327 63.5376V48.6096C82.2327 48.2736 83.0407 48.1056 84.6567 48.1056C86.2887 48.1056 87.1047 48.2736 87.1047 48.6096V60.3696H90.8007C91.0887 60.3696 91.2887 60.7456 91.4007 61.4976C91.4487 61.8656 91.4727 62.2416 91.4727 62.6256C91.4727 63.0096 91.4487 63.4016 91.4007 63.8016C91.2727 64.5696 91.0647 64.9536 90.7767 64.9536H83.3847C83.0327 64.9536 82.7527 64.8096 82.5447 64.5216C82.3367 64.2336 82.2327 63.9056 82.2327 63.5376ZM103.942 65.0016C102.55 65.0016 101.798 64.7776 101.686 64.3296L100.894 61.2336H97.0784L96.3824 64.2096C96.2864 64.7056 95.5184 64.9536 94.0784 64.9536C93.3104 64.9536 92.7424 64.9136 92.3744 64.8336C92.0064 64.7376 91.8224 64.6656 91.8224 64.6176L96.0704 48.3696C96.0704 48.2416 97.1664 48.1776 99.3584 48.1776C101.55 48.1776 102.646 48.2416 102.646 48.3696L106.798 64.6416C106.798 64.7536 106.43 64.8416 105.694 64.9056C104.958 64.9696 104.374 65.0016 103.942 65.0016ZM97.6784 58.1856H100.198L99.1184 53.2176H98.9744L97.6784 58.1856ZM115.54 48.9456C115.748 48.3856 116.772 48.1056 118.612 48.1056C119.076 48.1056 119.62 48.1376 120.244 48.2016C120.884 48.2656 121.18 48.3456 121.132 48.4416L116.14 58.4736V64.3296C116.14 64.6016 115.7 64.7936 114.82 64.9056C114.372 64.9696 113.932 65.0016 113.5 65.0016C113.068 65.0016 112.636 64.9776 112.204 64.9296C111.324 64.8176 110.884 64.6176 110.884 64.3296V58.6176L105.724 48.4896C105.66 48.3936 105.988 48.3056 106.708 48.2256C107.428 48.1296 108.036 48.0816 108.532 48.0816C110.5 48.0816 111.58 48.3696 111.772 48.9456L113.524 53.8416L115.54 48.9456Z"/>
</mask>
<path d="M71.1132 65.0016C69.6572 65.0016 68.9292 64.8416 68.9292 64.5216V48.9696C68.9292 48.4256 69.1772 48.1536 69.6732 48.1536H73.8972C76.2652 48.1536 77.9692 48.6416 79.0092 49.6176C80.0652 50.5936 80.5932 52.0096 80.5932 53.8656C80.5932 55.4016 80.0972 56.8096 79.1052 58.0896C78.6092 58.7296 77.8812 59.2416 76.9212 59.6256C75.9612 60.0096 74.8412 60.2016 73.5612 60.2016V64.4976C73.5612 64.6896 73.2572 64.8256 72.6492 64.9056C72.0572 64.9696 71.5452 65.0016 71.1132 65.0016ZM73.5612 52.3296V56.1216H73.8732C74.4332 56.1216 74.9052 55.9456 75.2892 55.5936C75.6732 55.2416 75.8652 54.7456 75.8652 54.1056C75.8652 53.4656 75.7292 53.0096 75.4572 52.7376C75.2012 52.4656 74.7372 52.3296 74.0652 52.3296H73.5612ZM82.2327 63.5376V48.6096C82.2327 48.2736 83.0407 48.1056 84.6567 48.1056C86.2887 48.1056 87.1047 48.2736 87.1047 48.6096V60.3696H90.8007C91.0887 60.3696 91.2887 60.7456 91.4007 61.4976C91.4487 61.8656 91.4727 62.2416 91.4727 62.6256C91.4727 63.0096 91.4487 63.4016 91.4007 63.8016C91.2727 64.5696 91.0647 64.9536 90.7767 64.9536H83.3847C83.0327 64.9536 82.7527 64.8096 82.5447 64.5216C82.3367 64.2336 82.2327 63.9056 82.2327 63.5376ZM103.942 65.0016C102.55 65.0016 101.798 64.7776 101.686 64.3296L100.894 61.2336H97.0784L96.3824 64.2096C96.2864 64.7056 95.5184 64.9536 94.0784 64.9536C93.3104 64.9536 92.7424 64.9136 92.3744 64.8336C92.0064 64.7376 91.8224 64.6656 91.8224 64.6176L96.0704 48.3696C96.0704 48.2416 97.1664 48.1776 99.3584 48.1776C101.55 48.1776 102.646 48.2416 102.646 48.3696L106.798 64.6416C106.798 64.7536 106.43 64.8416 105.694 64.9056C104.958 64.9696 104.374 65.0016 103.942 65.0016ZM97.6784 58.1856H100.198L99.1184 53.2176H98.9744L97.6784 58.1856ZM115.54 48.9456C115.748 48.3856 116.772 48.1056 118.612 48.1056C119.076 48.1056 119.62 48.1376 120.244 48.2016C120.884 48.2656 121.18 48.3456 121.132 48.4416L116.14 58.4736V64.3296C116.14 64.6016 115.7 64.7936 114.82 64.9056C114.372 64.9696 113.932 65.0016 113.5 65.0016C113.068 65.0016 112.636 64.9776 112.204 64.9296C111.324 64.8176 110.884 64.6176 110.884 64.3296V58.6176L105.724 48.4896C105.66 48.3936 105.988 48.3056 106.708 48.2256C107.428 48.1296 108.036 48.0816 108.532 48.0816C110.5 48.0816 111.58 48.3696 111.772 48.9456L113.524 53.8416L115.54 48.9456Z" fill="white"/>
<path d="M79.0092 49.6176L78.3249 50.3468L78.3305 50.352L79.0092 49.6176ZM79.1052 58.0896L79.8956 58.7022L79.8956 58.7022L79.1052 58.0896ZM76.9212 59.6256L76.5498 58.6971L76.5498 58.6971L76.9212 59.6256ZM73.5612 60.2016V59.2016H72.5612V60.2016H73.5612ZM72.6492 64.9056L72.7567 65.8998L72.7682 65.8986L72.7796 65.8971L72.6492 64.9056ZM73.5612 52.3296V51.3296H72.5612V52.3296H73.5612ZM73.5612 56.1216H72.5612V57.1216H73.5612V56.1216ZM75.2892 55.5936L75.9649 56.3308L75.9649 56.3308L75.2892 55.5936ZM75.4572 52.7376L74.729 53.423L74.7394 53.434L74.7501 53.4447L75.4572 52.7376ZM71.1132 65.0016V64.0016C70.4028 64.0016 69.9449 63.961 69.6899 63.9049C69.5549 63.8753 69.5571 63.8578 69.6162 63.8968C69.6937 63.9479 69.9292 64.1503 69.9292 64.5216H68.9292H67.9292C67.9292 65.0529 68.2557 65.3953 68.5152 65.5665C68.7562 65.7254 69.0315 65.808 69.2605 65.8583C69.7335 65.9623 70.3676 66.0016 71.1132 66.0016V65.0016ZM68.9292 64.5216H69.9292V48.9696H68.9292H67.9292V64.5216H68.9292ZM68.9292 48.9696H69.9292C69.9292 48.8301 69.963 48.912 69.8542 49.0314C69.7994 49.0914 69.7376 49.1268 69.6911 49.1438C69.6502 49.1587 69.638 49.1536 69.6732 49.1536V48.1536V47.1536C69.246 47.1536 68.749 47.275 68.3762 47.6839C68.0194 48.0752 67.9292 48.5652 67.9292 48.9696H68.9292ZM69.6732 48.1536V49.1536H73.8972V48.1536V47.1536H69.6732V48.1536ZM73.8972 48.1536V49.1536C76.1685 49.1536 77.5598 49.6288 78.3249 50.3468L79.0092 49.6176L79.6935 48.8884C78.3786 47.6544 76.3619 47.1536 73.8972 47.1536V48.1536ZM79.0092 49.6176L78.3305 50.352C79.1262 51.0874 79.5932 52.2027 79.5932 53.8656H80.5932H81.5932C81.5932 51.8165 81.0042 50.0998 79.6879 48.8832L79.0092 49.6176ZM80.5932 53.8656H79.5932C79.5932 55.1673 79.1788 56.3621 78.3148 57.477L79.1052 58.0896L79.8956 58.7022C81.0156 57.2571 81.5932 55.636 81.5932 53.8656H80.5932ZM79.1052 58.0896L78.3148 57.477C77.9541 57.9424 77.3895 58.3613 76.5498 58.6971L76.9212 59.6256L77.2926 60.5541C78.3729 60.122 79.2643 59.5168 79.8956 58.7022L79.1052 58.0896ZM76.9212 59.6256L76.5498 58.6971C75.7324 59.0241 74.7433 59.2016 73.5612 59.2016V60.2016V61.2016C74.9391 61.2016 76.19 60.9951 77.2926 60.5541L76.9212 59.6256ZM73.5612 60.2016H72.5612V64.4976H73.5612H74.5612V60.2016H73.5612ZM73.5612 64.4976H72.5612C72.5612 64.2525 72.6675 64.0627 72.7708 63.9513C72.817 63.9015 72.8587 63.8708 72.8833 63.8546C72.9083 63.8382 72.924 63.8312 72.9248 63.8308C72.9261 63.8302 72.9184 63.8337 72.8993 63.8399C72.8804 63.8459 72.8536 63.8535 72.8177 63.862C72.745 63.8793 72.6467 63.8973 72.5187 63.9142L72.6492 64.9056L72.7796 65.8971C73.1134 65.8532 73.456 65.7842 73.7416 65.6564C73.9716 65.5535 74.5612 65.2241 74.5612 64.4976H73.5612ZM72.6492 64.9056L72.5417 63.9114C71.9731 63.9729 71.4988 64.0016 71.1132 64.0016V65.0016V66.0016C71.5916 66.0016 72.1413 65.9664 72.7567 65.8998L72.6492 64.9056ZM73.5612 52.3296H72.5612V56.1216H73.5612H74.5612V52.3296H73.5612ZM73.5612 56.1216V57.1216H73.8732V56.1216V55.1216H73.5612V56.1216ZM73.8732 56.1216V57.1216C74.6629 57.1216 75.3819 56.8652 75.9649 56.3308L75.2892 55.5936L74.6135 54.8565C74.4285 55.0261 74.2035 55.1216 73.8732 55.1216V56.1216ZM75.2892 55.5936L75.9649 56.3308C76.6015 55.7473 76.8652 54.9569 76.8652 54.1056H75.8652H74.8652C74.8652 54.5343 74.7449 54.736 74.6135 54.8565L75.2892 55.5936ZM75.8652 54.1056H76.8652C76.8652 53.367 76.7156 52.5818 76.1643 52.0305L75.4572 52.7376L74.7501 53.4447C74.744 53.4386 74.7733 53.4633 74.8049 53.5694C74.8376 53.679 74.8652 53.8513 74.8652 54.1056H75.8652ZM75.4572 52.7376L76.1854 52.0522C75.6359 51.4684 74.8098 51.3296 74.0652 51.3296V52.3296V53.3296C74.3401 53.3296 74.5231 53.3582 74.6359 53.3912C74.7464 53.4236 74.7538 53.4493 74.729 53.423L75.4572 52.7376ZM74.0652 52.3296V51.3296H73.5612V52.3296V53.3296H74.0652V52.3296ZM87.1047 60.3696H86.1047V61.3696H87.1047V60.3696ZM91.4007 61.4976L92.3923 61.3683L92.3911 61.3593L92.3898 61.3503L91.4007 61.4976ZM91.4007 63.8016L92.3871 63.966L92.3908 63.9435L92.3936 63.9208L91.4007 63.8016ZM82.5447 64.5216L83.3554 63.9361L83.3554 63.9361L82.5447 64.5216ZM82.2327 63.5376H83.2327V48.6096H82.2327H81.2327V63.5376H82.2327ZM82.2327 48.6096H83.2327C83.2327 49.0035 82.9713 49.2015 82.9134 49.2376C82.8669 49.2666 82.8839 49.2436 83.0423 49.2107C83.3427 49.1482 83.8652 49.1056 84.6567 49.1056V48.1056V47.1056C83.8322 47.1056 83.1427 47.147 82.6351 47.2526C82.3895 47.3036 82.1035 47.3856 81.855 47.5406C81.5951 47.7028 81.2327 48.0477 81.2327 48.6096H82.2327ZM84.6567 48.1056V49.1056C85.4563 49.1056 85.9857 49.1482 86.291 49.2111C86.452 49.2442 86.4712 49.2677 86.4262 49.2399C86.3713 49.206 86.1047 49.0083 86.1047 48.6096H87.1047H88.1047C88.1047 48.0429 87.7361 47.6982 87.4772 47.5383C87.2281 47.3845 86.9414 47.303 86.6943 47.2522C86.1837 47.147 85.489 47.1056 84.6567 47.1056V48.1056ZM87.1047 48.6096H86.1047V60.3696H87.1047H88.1047V48.6096H87.1047ZM87.1047 60.3696V61.3696H90.8007V60.3696V59.3696H87.1047V60.3696ZM90.8007 60.3696V61.3696C90.636 61.3696 90.4908 61.31 90.3899 61.2323C90.3036 61.1658 90.2767 61.1078 90.2838 61.1212C90.2895 61.1318 90.3102 61.176 90.3364 61.2707C90.3619 61.3629 90.3879 61.486 90.4116 61.6449L91.4007 61.4976L92.3898 61.3503C92.328 60.9356 92.2295 60.5204 92.0496 60.182C91.8682 59.8411 91.4764 59.3696 90.8007 59.3696V60.3696ZM91.4007 61.4976L90.4091 61.627C90.4513 61.9506 90.4727 62.2834 90.4727 62.6256H91.4727H92.4727C92.4727 62.1999 92.4461 61.7806 92.3923 61.3683L91.4007 61.4976ZM91.4727 62.6256H90.4727C90.4727 62.9679 90.4513 63.3201 90.4078 63.6825L91.4007 63.8016L92.3936 63.9208C92.4461 63.4831 92.4727 63.0513 92.4727 62.6256H91.4727ZM91.4007 63.8016L90.4143 63.6372C90.387 63.801 90.3579 63.9288 90.3297 64.0256C90.3008 64.1248 90.2777 64.174 90.2694 64.1893C90.2593 64.2079 90.2834 64.1545 90.3655 64.0909C90.4622 64.0161 90.607 63.9536 90.7767 63.9536V64.9536V65.9536C91.4567 65.9536 91.848 65.4741 92.028 65.1419C92.2107 64.8046 92.3168 64.3877 92.3871 63.966L91.4007 63.8016ZM90.7767 64.9536V63.9536H83.3847V64.9536V65.9536H90.7767V64.9536ZM83.3847 64.9536V63.9536C83.3651 63.9536 83.3565 63.9516 83.3564 63.9516C83.3562 63.9516 83.3574 63.9518 83.3598 63.9527C83.3622 63.9536 83.365 63.9548 83.368 63.9563C83.3747 63.9597 83.3778 63.9626 83.377 63.9619C83.3759 63.9608 83.3681 63.9537 83.3554 63.9361L82.5447 64.5216L81.734 65.1071C82.128 65.6526 82.7081 65.9536 83.3847 65.9536V64.9536ZM82.5447 64.5216L83.3554 63.9361C83.2751 63.825 83.2327 63.7035 83.2327 63.5376H82.2327H81.2327C81.2327 64.1078 81.3983 64.6423 81.734 65.1071L82.5447 64.5216ZM101.686 64.3296L102.657 64.0871L102.655 64.0818L101.686 64.3296ZM100.894 61.2336L101.863 60.9858L101.671 60.2336H100.894V61.2336ZM97.0784 61.2336V60.2336H96.2853L96.1047 61.0059L97.0784 61.2336ZM96.3824 64.2096L95.4087 63.9819L95.4043 64.0007L95.4006 64.0196L96.3824 64.2096ZM92.3744 64.8336L92.122 65.8012L92.1419 65.8064L92.162 65.8108L92.3744 64.8336ZM91.8224 64.6176L90.8549 64.3647L90.8224 64.4891V64.6176H91.8224ZM96.0704 48.3696L97.0379 48.6226L97.0704 48.4982V48.3696H96.0704ZM102.646 48.3696H101.646V48.4952L101.677 48.6169L102.646 48.3696ZM106.798 64.6416H107.798V64.516L107.767 64.3944L106.798 64.6416ZM105.694 64.9056L105.608 63.9094L105.694 64.9056ZM97.6784 58.1856L96.7108 57.9332L96.384 59.1856H97.6784V58.1856ZM100.198 58.1856V59.1856H101.439L101.176 57.9732L100.198 58.1856ZM99.1184 53.2176L100.096 53.0052L99.9243 52.2176H99.1184V53.2176ZM98.9744 53.2176V52.2176H98.2018L98.0068 52.9652L98.9744 53.2176ZM103.942 65.0016V64.0016C103.281 64.0016 102.858 63.9462 102.62 63.8752C102.34 63.7919 102.579 63.7787 102.657 64.0871L101.686 64.3296L100.716 64.5721C100.905 65.3285 101.577 65.6514 102.049 65.792C102.563 65.945 103.212 66.0016 103.942 66.0016V65.0016ZM101.686 64.3296L102.655 64.0818L101.863 60.9858L100.894 61.2336L99.9256 61.4814L100.718 64.5774L101.686 64.3296ZM100.894 61.2336V60.2336H97.0784V61.2336V62.2336H100.894V61.2336ZM97.0784 61.2336L96.1047 61.0059L95.4087 63.9819L96.3824 64.2096L97.3561 64.4373L98.0521 61.4613L97.0784 61.2336ZM96.3824 64.2096L95.4006 64.0196C95.4569 63.7285 95.6854 63.7326 95.4271 63.816C95.1913 63.8921 94.7623 63.9536 94.0784 63.9536V64.9536V65.9536C94.8345 65.9536 95.5095 65.8911 96.0417 65.7192C96.5513 65.5547 97.2118 65.1867 97.3642 64.3996L96.3824 64.2096ZM94.0784 64.9536V63.9536C93.3242 63.9536 92.8451 63.9126 92.5868 63.8564L92.3744 64.8336L92.162 65.8108C92.6396 65.9146 93.2966 65.9536 94.0784 65.9536V64.9536ZM92.3744 64.8336L92.6268 63.866C92.4529 63.8206 92.3607 63.7904 92.3248 63.7764C92.3006 63.7669 92.3407 63.7797 92.4032 63.8205C92.4331 63.8401 92.5115 63.8935 92.5923 63.9883C92.6691 64.0785 92.8224 64.295 92.8224 64.6176H91.8224H90.8224C90.8224 64.9522 90.9814 65.1815 91.0698 65.2852C91.162 65.3935 91.2576 65.4612 91.3106 65.4957C91.4191 65.5665 91.5282 65.6123 91.596 65.6389C91.7441 65.6968 91.9279 65.7506 92.122 65.8012L92.3744 64.8336ZM91.8224 64.6176L92.7899 64.8706L97.0379 48.6226L96.0704 48.3696L95.1029 48.1167L90.8549 64.3647L91.8224 64.6176ZM96.0704 48.3696H97.0704C97.0704 48.7552 96.8559 48.9989 96.7421 49.0986C96.6318 49.1953 96.5297 49.2382 96.5001 49.2503C96.4335 49.2775 96.4004 49.279 96.4484 49.2706C96.5269 49.2569 96.6857 49.2394 96.9507 49.2239C97.4685 49.1937 98.2667 49.1776 99.3584 49.1776V48.1776V47.1776C98.258 47.1776 97.4123 47.1936 96.8341 47.2273C96.551 47.2438 96.2989 47.2664 96.1033 47.3006C96.0144 47.3162 95.8785 47.3437 95.7434 47.399C95.6795 47.4251 95.5518 47.4825 95.4243 47.5941C95.2934 47.7088 95.0704 47.968 95.0704 48.3696H96.0704ZM99.3584 48.1776V49.1776C100.45 49.1776 101.248 49.1937 101.766 49.2239C102.031 49.2394 102.19 49.2569 102.268 49.2706C102.316 49.279 102.283 49.2775 102.217 49.2503C102.187 49.2382 102.085 49.1953 101.975 49.0986C101.861 48.9989 101.646 48.7552 101.646 48.3696H102.646H103.646C103.646 47.968 103.423 47.7088 103.292 47.5941C103.165 47.4825 103.037 47.4251 102.973 47.399C102.838 47.3437 102.702 47.3162 102.613 47.3006C102.418 47.2664 102.166 47.2438 101.883 47.2273C101.304 47.1936 100.459 47.1776 99.3584 47.1776V48.1776ZM102.646 48.3696L101.677 48.6169L105.829 64.8889L106.798 64.6416L107.767 64.3944L103.615 48.1224L102.646 48.3696ZM106.798 64.6416H105.798C105.798 64.3585 105.921 64.1481 106.026 64.027C106.121 63.9169 106.216 63.8618 106.252 63.8425C106.321 63.8046 106.353 63.8039 106.29 63.819C106.18 63.8453 105.964 63.8784 105.608 63.9094L105.694 64.9056L105.781 65.9019C106.161 65.8688 106.497 65.8259 106.755 65.7642C106.876 65.7354 107.045 65.6876 107.207 65.5997C107.297 65.5509 107.798 65.2699 107.798 64.6416H106.798ZM105.694 64.9056L105.608 63.9094C104.883 63.9724 104.332 64.0016 103.942 64.0016V65.0016V66.0016C104.416 66.0016 105.033 65.9669 105.781 65.9019L105.694 64.9056ZM97.6784 58.1856V59.1856H100.198V58.1856V57.1856H97.6784V58.1856ZM100.198 58.1856L101.176 57.9732L100.096 53.0052L99.1184 53.2176L98.1412 53.43L99.2212 58.398L100.198 58.1856ZM99.1184 53.2176V52.2176H98.9744V53.2176V54.2176H99.1184V53.2176ZM98.9744 53.2176L98.0068 52.9652L96.7108 57.9332L97.6784 58.1856L98.646 58.438L99.942 53.47L98.9744 53.2176ZM115.54 48.9456L116.465 49.3264L116.471 49.3102L116.477 49.2938L115.54 48.9456ZM120.244 48.2016L120.142 49.1964L120.145 49.1967L120.244 48.2016ZM121.132 48.4416L120.238 47.9944L120.237 47.9961L121.132 48.4416ZM116.14 58.4736L115.245 58.0281L115.14 58.2386V58.4736H116.14ZM114.82 64.9056L114.694 63.9136L114.686 63.9146L114.679 63.9157L114.82 64.9056ZM112.204 64.9296L112.078 65.9216L112.086 65.9226L112.094 65.9235L112.204 64.9296ZM110.884 58.6176H111.884V58.3776L111.775 58.1637L110.884 58.6176ZM105.724 48.4896L106.615 48.0357L106.588 47.9836L106.556 47.9349L105.724 48.4896ZM106.708 48.2256L106.818 49.2195L106.829 49.2183L106.84 49.2168L106.708 48.2256ZM111.772 48.9456L110.823 49.2618L110.827 49.2722L110.83 49.2825L111.772 48.9456ZM113.524 53.8416L112.582 54.1785L113.459 56.6269L114.449 54.2224L113.524 53.8416ZM115.54 48.9456L116.477 49.2938C116.405 49.4877 116.292 49.3992 116.728 49.2802C117.113 49.1748 117.726 49.1056 118.612 49.1056V48.1056V47.1056C117.658 47.1056 116.839 47.1765 116.2 47.351C115.612 47.512 114.883 47.8436 114.603 48.5974L115.54 48.9456ZM118.612 48.1056V49.1056C119.032 49.1056 119.541 49.1348 120.142 49.1964L120.244 48.2016L120.346 47.2068C119.699 47.1405 119.12 47.1056 118.612 47.1056V48.1056ZM120.244 48.2016L120.145 49.1967C120.456 49.2278 120.621 49.2576 120.685 49.275C120.737 49.289 120.645 49.2736 120.525 49.1881C120.462 49.1433 120.305 49.02 120.21 48.7881C120.094 48.5092 120.126 48.2185 120.238 47.9944L121.132 48.4416L122.026 48.8888C122.15 48.6408 122.183 48.3265 122.058 48.0246C121.953 47.7698 121.776 47.6239 121.682 47.5571C121.5 47.4276 121.303 47.3703 121.207 47.3442C120.975 47.2816 120.672 47.2395 120.344 47.2066L120.244 48.2016ZM121.132 48.4416L120.237 47.9961L115.245 58.0281L116.14 58.4736L117.035 58.9191L122.027 48.8871L121.132 48.4416ZM116.14 58.4736H115.14V64.3296H116.14H117.14V58.4736H116.14ZM116.14 64.3296H115.14C115.14 64.0973 115.244 63.9235 115.332 63.8305C115.403 63.7552 115.453 63.7423 115.41 63.7611C115.374 63.7766 115.3 63.8028 115.173 63.8321C115.049 63.8608 114.89 63.8886 114.694 63.9136L114.82 64.9056L114.946 65.8976C115.415 65.8379 115.858 65.7478 116.21 65.5942C116.498 65.4683 117.14 65.1083 117.14 64.3296H116.14ZM114.82 64.9056L114.679 63.9157C114.275 63.9733 113.883 64.0016 113.5 64.0016V65.0016V66.0016C113.982 66.0016 114.469 65.9659 114.961 65.8956L114.82 64.9056ZM113.5 65.0016V64.0016C113.105 64.0016 112.71 63.9797 112.314 63.9357L112.204 64.9296L112.094 65.9235C112.562 65.9755 113.031 66.0016 113.5 66.0016V65.0016ZM112.204 64.9296L112.33 63.9376C112.135 63.9128 111.979 63.8848 111.857 63.8559C111.732 63.8264 111.66 63.8001 111.628 63.7852C111.589 63.7676 111.64 63.7822 111.709 63.8595C111.795 63.9545 111.884 64.1194 111.884 64.3296H110.884H109.884C109.884 65.0889 110.485 65.4626 110.8 65.606C111.158 65.7686 111.607 65.8617 112.078 65.9216L112.204 64.9296ZM110.884 64.3296H111.884V58.6176H110.884H109.884V64.3296H110.884ZM110.884 58.6176L111.775 58.1637L106.615 48.0357L105.724 48.4896L104.833 48.9436L109.993 59.0716L110.884 58.6176ZM105.724 48.4896L106.556 47.9349C106.693 48.1406 106.78 48.4584 106.659 48.7941C106.562 49.0627 106.38 49.1989 106.321 49.2395C106.202 49.3224 106.115 49.3352 106.181 49.3175C106.267 49.2943 106.466 49.2587 106.818 49.2195L106.708 48.2256L106.598 47.2317C106.23 47.2725 105.905 47.3209 105.663 47.3858C105.565 47.412 105.363 47.4698 105.178 47.5987C105.087 47.6623 104.884 47.8218 104.778 48.1139C104.648 48.4731 104.739 48.8146 104.892 49.0443L105.724 48.4896ZM106.708 48.2256L106.84 49.2168C107.534 49.1243 108.095 49.0816 108.532 49.0816V48.0816V47.0816C107.977 47.0816 107.322 47.135 106.576 47.2344L106.708 48.2256ZM108.532 48.0816V49.0816C109.484 49.0816 110.145 49.153 110.56 49.2638C111.04 49.3917 110.898 49.486 110.823 49.2618L111.772 48.9456L112.721 48.6294C112.454 47.8293 111.676 47.4915 111.076 47.3314C110.411 47.1542 109.548 47.0816 108.532 47.0816V48.0816ZM111.772 48.9456L110.83 49.2825L112.582 54.1785L113.524 53.8416L114.466 53.5047L112.714 48.6087L111.772 48.9456ZM113.524 53.8416L114.449 54.2224L116.465 49.3264L115.54 48.9456L114.615 48.5649L112.599 53.4609L113.524 53.8416Z" fill="black" mask="url(#path-3-outside-1_2007_18271)"/>
</g>
<mask id="mask0_2007_18271" style="mask-type:alpha" maskUnits="userSpaceOnUse" x="6" y="30" width="177" height="57">
<path d="M10.9296 32.936C11.0707 31.3914 12.366 30.209 13.9171 30.209H179.363C181.128 30.209 182.511 31.7246 182.351 33.482L177.72 84.1594C177.579 85.7041 176.284 86.8865 174.733 86.8865H9.28663C7.52198 86.8865 6.13849 85.3708 6.29906 83.6135L10.9296 32.936Z" fill="#EFC609"/>
</mask>
<g mask="url(#mask0_2007_18271)">
<rect x="6" y="28.0132" width="179.228" height="6.05811" fill="#FBEF44"/>
<rect x="3.4209" y="82.3726" width="179.228" height="6.05811" fill="#A6552D"/>
<path d="M184.877 40.609L175.428 29.0132H184.877V40.609Z" fill="#FFFEA3"/>
</g>
</g>
<defs>
<filter id="filter0_d_2007_18271" x="0.686523" y="0" width="195.634" height="96.4858" filterUnits="userSpaceOnUse" color-interpolation-filters="sRGB">
<feFlood flood-opacity="0" result="BackgroundImageFix"/>
<feColorMatrix in="SourceAlpha" type="matrix" values="0 0 0 0 0 0 0 0 0 0 0 0 0 0 0 0 0 0 127 0" result="hardAlpha"/>
<feOffset dy="4"/>
<feGaussianBlur stdDeviation="2"/>
<feComposite in2="hardAlpha" operator="out"/>
<feColorMatrix type="matrix" values="0 0 0 0 0 0 0 0 0 0 0 0 0 0 0 0 0 0 0.25 0"/>
<feBlend mode="normal" in2="BackgroundImageFix" result="effect1_dropShadow_2007_18271"/>
<feBlend mode="normal" in="SourceGraphic" in2="effect1_dropShadow_2007_18271" result="shape"/>
</filter>
<filter id="filter1_d_2007_18271" x="4.68652" y="28.6084" width="179.277" height="62.8774" filterUnits="userSpaceOnUse" color-interpolation-filters="sRGB">
<feFlood flood-opacity="0" result="BackgroundImageFix"/>
<feColorMatrix in="SourceAlpha" type="matrix" values="0 0 0 0 0 0 0 0 0 0 0 0 0 0 0 0 0 0 127 0" result="hardAlpha"/>
<feOffset dy="3"/>
<feComposite in2="hardAlpha" operator="out"/>
<feColorMatrix type="matrix" values="0 0 0 0 0 0 0 0 0 0 0 0 0 0 0 0 0 0 0.5 0"/>
<feBlend mode="normal" in2="BackgroundImageFix" result="effect1_dropShadow_2007_18271"/>
<feBlend mode="normal" in="SourceGraphic" in2="effect1_dropShadow_2007_18271" result="shape"/>
</filter>
<filter id="filter2_d_2007_18271" x="67.9287" y="47.0815" width="54.208" height="20.9199" filterUnits="userSpaceOnUse" color-interpolation-filters="sRGB">
<feFlood flood-opacity="0" result="BackgroundImageFix"/>
<feColorMatrix in="SourceAlpha" type="matrix" values="0 0 0 0 0 0 0 0 0 0 0 0 0 0 0 0 0 0 127 0" result="hardAlpha"/>
<feOffset dy="2"/>
<feComposite in2="hardAlpha" operator="out"/>
<feColorMatrix type="matrix" values="0 0 0 0 0 0 0 0 0 0 0 0 0 0 0 0 0 0 1 0"/>
<feBlend mode="normal" in2="BackgroundImageFix" result="effect1_dropShadow_2007_18271"/>
<feBlend mode="normal" in="SourceGraphic" in2="effect1_dropShadow_2007_18271" result="shape"/>
</filter>
</defs>
</svg>
