<svg width="193" height="97" viewBox="0 0 193 97" fill="none" xmlns="http://www.w3.org/2000/svg">
<g filter="url(#filter0_d_2009_4031)">
<g filter="url(#filter1_d_2009_4031)">
<path d="M10.9296 32.9355C11.0707 31.3909 12.366 30.2085 13.9171 30.2085H179.363C181.128 30.2085 182.511 31.7242 182.351 33.4815L177.72 84.159C177.579 85.7036 176.284 86.886 174.733 86.886H9.28663C7.52198 86.886 6.13849 85.3703 6.29906 83.613L10.9296 32.9355Z" fill="#EFC609"/>
<path d="M179.363 29.4087C181.528 29.4088 183.241 31.2101 183.161 33.3462L183.147 33.5542L178.517 84.2319C178.338 86.1884 176.697 87.686 174.732 87.686H9.28711C7.05202 87.686 5.29878 85.7663 5.50195 83.5405L10.1328 32.8628L10.1543 32.6812C10.4147 30.8143 12.0136 29.4088 13.917 29.4087H179.363Z" stroke="black" stroke-width="1.6"/>
</g>
<g filter="url(#filter2_d_2009_4031)">
<mask id="path-3-outside-1_2009_4031" maskUnits="userSpaceOnUse" x="47" y="46" width="93" height="21" fill="black">
<rect fill="white" x="47" y="46" width="93" height="21"/>
<path d="M58.08 59.984L58.128 56.72C58.128 56.496 58.36 56.352 58.824 56.288C59.288 56.208 59.672 56.168 59.976 56.168L60.912 56.24C61.52 56.336 61.824 56.504 61.824 56.744L61.728 64.256C61.408 64.48 60.76 64.704 59.784 64.928C58.824 65.136 57.72 65.24 56.472 65.24C54.152 65.24 52.28 64.488 50.856 62.984C49.432 61.48 48.72 59.272 48.72 56.36C48.72 53.88 49.416 51.864 50.808 50.312C52.2 48.76 54.128 47.984 56.592 47.984C57.712 47.984 58.72 48.096 59.616 48.32C60.528 48.528 61.152 48.816 61.488 49.184C61.504 49.312 61.512 49.552 61.512 49.904C61.512 50.256 61.392 50.76 61.152 51.416C60.912 52.056 60.64 52.536 60.336 52.856C60.032 53.176 59.808 53.336 59.664 53.336C59.536 53.336 59.392 53.28 59.232 53.168C59.088 53.04 58.792 52.912 58.344 52.784C57.896 52.64 57.464 52.568 57.048 52.568C56.056 52.568 55.248 52.888 54.624 53.528C54.016 54.168 53.712 55.16 53.712 56.504C53.712 57.848 54.024 58.872 54.648 59.576C55.288 60.264 56.016 60.608 56.832 60.608C57.664 60.608 58.08 60.4 58.08 59.984ZM65.4503 60.872V52.328H63.7463C63.4743 52.328 63.2823 51.984 63.1703 51.296C63.1223 50.96 63.0983 50.616 63.0983 50.264C63.0983 49.912 63.1223 49.568 63.1703 49.232C63.2823 48.544 63.4743 48.2 63.7463 48.2H71.8103C72.0823 48.2 72.2663 48.544 72.3623 49.232C72.4263 49.568 72.4583 49.912 72.4583 50.264C72.4583 50.616 72.4263 50.96 72.3623 51.296C72.2663 51.984 72.0823 52.328 71.8103 52.328H70.2023V60.872H71.8823C72.1543 60.872 72.3463 61.216 72.4583 61.904C72.5223 62.24 72.5543 62.584 72.5543 62.936C72.5543 63.288 72.5223 63.632 72.4583 63.968C72.3463 64.656 72.1543 65 71.8823 65H63.7943C63.5223 65 63.3383 64.656 63.2423 63.968C63.1783 63.632 63.1463 63.288 63.1463 62.936C63.1463 62.584 63.1783 62.24 63.2423 61.904C63.3383 61.216 63.5223 60.872 63.7943 60.872H65.4503ZM72.9793 48.512C72.9793 48.432 73.3233 48.36 74.0113 48.296C74.7153 48.216 75.2913 48.176 75.7393 48.176C77.5153 48.176 78.4433 48.408 78.5233 48.872L80.5873 59.432L82.5313 48.872C82.6273 48.408 83.6193 48.176 85.5073 48.176C85.9713 48.176 86.5553 48.208 87.2593 48.272C87.9633 48.336 88.3153 48.408 88.3153 48.488L84.0673 64.376C84.0033 64.632 83.5313 64.8 82.6513 64.88C81.2913 65.024 80.0513 65.056 78.9313 64.976C77.8273 64.88 77.2433 64.72 77.1793 64.496L72.9793 48.512ZM97.3425 54.872C97.6465 54.872 97.7985 55.432 97.7985 56.552C97.7985 56.888 97.7585 57.288 97.6785 57.752C97.6145 58.2 97.4865 58.424 97.2945 58.424H94.2465V60.824H98.6625C98.9345 60.824 99.1185 61.176 99.2145 61.88C99.2625 62.184 99.2865 62.512 99.2865 62.864C99.2865 63.2 99.2385 63.64 99.1425 64.184C99.0465 64.728 98.8865 65 98.6625 65H90.4545C89.8465 65 89.5425 64.752 89.5425 64.256V48.824C89.5425 48.408 89.7265 48.2 90.0945 48.2H98.6865C99.0225 48.2 99.1905 48.912 99.1905 50.336C99.1905 51.744 99.0225 52.448 98.6865 52.448H94.2465V54.872H97.3425ZM113.27 48.68C113.27 48.36 114.134 48.2 115.862 48.2C117.606 48.2 118.478 48.36 118.478 48.68V59.696C118.478 61.328 117.894 62.664 116.726 63.704C115.558 64.728 113.942 65.24 111.878 65.24C109.83 65.24 108.158 64.712 106.862 63.656C105.582 62.584 104.942 61.144 104.942 59.336V48.704C104.942 48.384 105.806 48.224 107.534 48.224C109.278 48.224 110.15 48.384 110.15 48.704V59.528C110.15 59.848 110.318 60.104 110.654 60.296C111.006 60.488 111.374 60.584 111.758 60.584C112.142 60.584 112.486 60.496 112.79 60.32C113.11 60.144 113.27 59.88 113.27 59.528V48.68ZM122.34 65.048C120.884 65.048 120.156 64.888 120.156 64.568V49.016C120.156 48.472 120.404 48.2 120.9 48.2H125.124C127.492 48.2 129.196 48.688 130.236 49.664C131.292 50.64 131.82 52.056 131.82 53.912C131.82 55.448 131.324 56.856 130.332 58.136C129.836 58.776 129.108 59.288 128.148 59.672C127.188 60.056 126.068 60.248 124.788 60.248V64.544C124.788 64.736 124.484 64.872 123.876 64.952C123.284 65.016 122.772 65.048 122.34 65.048ZM124.788 52.376V56.168H125.1C125.66 56.168 126.132 55.992 126.516 55.64C126.9 55.288 127.092 54.792 127.092 54.152C127.092 53.512 126.956 53.056 126.684 52.784C126.428 52.512 125.964 52.376 125.292 52.376H124.788ZM137.54 59.96C137.54 60.056 136.964 60.104 135.812 60.104C134.676 60.104 134.108 60.064 134.108 59.984L133.628 48.152C133.628 48.024 134.356 47.96 135.812 47.96C137.284 47.96 138.02 48.016 138.02 48.128L137.54 59.96ZM133.58 61.4C133.58 61.288 134.316 61.232 135.788 61.232C137.276 61.232 138.02 61.28 138.02 61.376V64.832C138.02 64.992 137.276 65.072 135.788 65.072C134.316 65.072 133.58 65.024 133.58 64.928V61.4Z"/>
</mask>
<path d="M58.08 59.984L58.128 56.72C58.128 56.496 58.36 56.352 58.824 56.288C59.288 56.208 59.672 56.168 59.976 56.168L60.912 56.24C61.52 56.336 61.824 56.504 61.824 56.744L61.728 64.256C61.408 64.48 60.76 64.704 59.784 64.928C58.824 65.136 57.72 65.24 56.472 65.24C54.152 65.24 52.28 64.488 50.856 62.984C49.432 61.48 48.72 59.272 48.72 56.36C48.72 53.88 49.416 51.864 50.808 50.312C52.2 48.76 54.128 47.984 56.592 47.984C57.712 47.984 58.72 48.096 59.616 48.32C60.528 48.528 61.152 48.816 61.488 49.184C61.504 49.312 61.512 49.552 61.512 49.904C61.512 50.256 61.392 50.76 61.152 51.416C60.912 52.056 60.64 52.536 60.336 52.856C60.032 53.176 59.808 53.336 59.664 53.336C59.536 53.336 59.392 53.28 59.232 53.168C59.088 53.04 58.792 52.912 58.344 52.784C57.896 52.64 57.464 52.568 57.048 52.568C56.056 52.568 55.248 52.888 54.624 53.528C54.016 54.168 53.712 55.16 53.712 56.504C53.712 57.848 54.024 58.872 54.648 59.576C55.288 60.264 56.016 60.608 56.832 60.608C57.664 60.608 58.08 60.4 58.08 59.984ZM65.4503 60.872V52.328H63.7463C63.4743 52.328 63.2823 51.984 63.1703 51.296C63.1223 50.96 63.0983 50.616 63.0983 50.264C63.0983 49.912 63.1223 49.568 63.1703 49.232C63.2823 48.544 63.4743 48.2 63.7463 48.2H71.8103C72.0823 48.2 72.2663 48.544 72.3623 49.232C72.4263 49.568 72.4583 49.912 72.4583 50.264C72.4583 50.616 72.4263 50.96 72.3623 51.296C72.2663 51.984 72.0823 52.328 71.8103 52.328H70.2023V60.872H71.8823C72.1543 60.872 72.3463 61.216 72.4583 61.904C72.5223 62.24 72.5543 62.584 72.5543 62.936C72.5543 63.288 72.5223 63.632 72.4583 63.968C72.3463 64.656 72.1543 65 71.8823 65H63.7943C63.5223 65 63.3383 64.656 63.2423 63.968C63.1783 63.632 63.1463 63.288 63.1463 62.936C63.1463 62.584 63.1783 62.24 63.2423 61.904C63.3383 61.216 63.5223 60.872 63.7943 60.872H65.4503ZM72.9793 48.512C72.9793 48.432 73.3233 48.36 74.0113 48.296C74.7153 48.216 75.2913 48.176 75.7393 48.176C77.5153 48.176 78.4433 48.408 78.5233 48.872L80.5873 59.432L82.5313 48.872C82.6273 48.408 83.6193 48.176 85.5073 48.176C85.9713 48.176 86.5553 48.208 87.2593 48.272C87.9633 48.336 88.3153 48.408 88.3153 48.488L84.0673 64.376C84.0033 64.632 83.5313 64.8 82.6513 64.88C81.2913 65.024 80.0513 65.056 78.9313 64.976C77.8273 64.88 77.2433 64.72 77.1793 64.496L72.9793 48.512ZM97.3425 54.872C97.6465 54.872 97.7985 55.432 97.7985 56.552C97.7985 56.888 97.7585 57.288 97.6785 57.752C97.6145 58.2 97.4865 58.424 97.2945 58.424H94.2465V60.824H98.6625C98.9345 60.824 99.1185 61.176 99.2145 61.88C99.2625 62.184 99.2865 62.512 99.2865 62.864C99.2865 63.2 99.2385 63.64 99.1425 64.184C99.0465 64.728 98.8865 65 98.6625 65H90.4545C89.8465 65 89.5425 64.752 89.5425 64.256V48.824C89.5425 48.408 89.7265 48.2 90.0945 48.2H98.6865C99.0225 48.2 99.1905 48.912 99.1905 50.336C99.1905 51.744 99.0225 52.448 98.6865 52.448H94.2465V54.872H97.3425ZM113.27 48.68C113.27 48.36 114.134 48.2 115.862 48.2C117.606 48.2 118.478 48.36 118.478 48.68V59.696C118.478 61.328 117.894 62.664 116.726 63.704C115.558 64.728 113.942 65.24 111.878 65.24C109.83 65.24 108.158 64.712 106.862 63.656C105.582 62.584 104.942 61.144 104.942 59.336V48.704C104.942 48.384 105.806 48.224 107.534 48.224C109.278 48.224 110.15 48.384 110.15 48.704V59.528C110.15 59.848 110.318 60.104 110.654 60.296C111.006 60.488 111.374 60.584 111.758 60.584C112.142 60.584 112.486 60.496 112.79 60.32C113.11 60.144 113.27 59.88 113.27 59.528V48.68ZM122.34 65.048C120.884 65.048 120.156 64.888 120.156 64.568V49.016C120.156 48.472 120.404 48.2 120.9 48.2H125.124C127.492 48.2 129.196 48.688 130.236 49.664C131.292 50.64 131.82 52.056 131.82 53.912C131.82 55.448 131.324 56.856 130.332 58.136C129.836 58.776 129.108 59.288 128.148 59.672C127.188 60.056 126.068 60.248 124.788 60.248V64.544C124.788 64.736 124.484 64.872 123.876 64.952C123.284 65.016 122.772 65.048 122.34 65.048ZM124.788 52.376V56.168H125.1C125.66 56.168 126.132 55.992 126.516 55.64C126.9 55.288 127.092 54.792 127.092 54.152C127.092 53.512 126.956 53.056 126.684 52.784C126.428 52.512 125.964 52.376 125.292 52.376H124.788ZM137.54 59.96C137.54 60.056 136.964 60.104 135.812 60.104C134.676 60.104 134.108 60.064 134.108 59.984L133.628 48.152C133.628 48.024 134.356 47.96 135.812 47.96C137.284 47.96 138.02 48.016 138.02 48.128L137.54 59.96ZM133.58 61.4C133.58 61.288 134.316 61.232 135.788 61.232C137.276 61.232 138.02 61.28 138.02 61.376V64.832C138.02 64.992 137.276 65.072 135.788 65.072C134.316 65.072 133.58 65.024 133.58 64.928V61.4Z" fill="white"/>
<path d="M58.08 59.984L57.0801 59.9693L57.08 59.9766V59.984H58.08ZM58.128 56.72L59.1279 56.7347L59.128 56.7274V56.72H58.128ZM58.824 56.288L58.9606 57.2786L58.9773 57.2763L58.9939 57.2735L58.824 56.288ZM59.976 56.168L60.0527 55.1709L60.0144 55.168H59.976V56.168ZM60.912 56.24L61.068 55.2522L61.0285 55.246L60.9887 55.2429L60.912 56.24ZM61.824 56.744L62.824 56.7568V56.744H61.824ZM61.728 64.256L62.3015 65.0752L62.7214 64.7813L62.7279 64.2688L61.728 64.256ZM59.784 64.928L59.9958 65.9054L60.0077 65.9027L59.784 64.928ZM50.856 62.984L51.5822 62.2965L51.5822 62.2965L50.856 62.984ZM59.616 48.32L59.3735 49.2901L59.3835 49.2927L59.3936 49.295L59.616 48.32ZM61.488 49.184L62.4803 49.06L62.4408 48.7445L62.2265 48.5097L61.488 49.184ZM61.152 51.416L62.0884 51.7671L62.0911 51.7596L61.152 51.416ZM60.336 52.856L59.611 52.1672L59.611 52.1673L60.336 52.856ZM59.232 53.168L58.5676 53.9154L58.611 53.954L58.6585 53.9872L59.232 53.168ZM58.344 52.784L58.038 53.736L58.0536 53.741L58.0693 53.7455L58.344 52.784ZM54.624 53.528L53.9079 52.8298L53.899 52.8392L54.624 53.528ZM54.648 59.576L53.8997 60.2393L53.9076 60.2483L53.9158 60.2571L54.648 59.576ZM58.08 59.984L59.0799 59.9987L59.1279 56.7347L58.128 56.72L57.1281 56.7053L57.0801 59.9693L58.08 59.984ZM58.128 56.72H59.128C59.128 56.8468 59.0922 56.9817 59.0174 57.1003C58.9476 57.211 58.8681 57.2696 58.8294 57.2936C58.7921 57.3168 58.7776 57.3176 58.8058 57.3091C58.8322 57.3013 58.8816 57.2895 58.9606 57.2786L58.824 56.288L58.6874 55.2974C58.402 55.3367 58.0657 55.4137 57.7746 55.5944C57.4393 55.8025 57.128 56.1826 57.128 56.72H58.128ZM58.824 56.288L58.9939 57.2735C59.4287 57.1985 59.7509 57.168 59.976 57.168V56.168V55.168C59.5931 55.168 59.1473 55.2175 58.6541 55.3025L58.824 56.288ZM59.976 56.168L59.8993 57.1651L60.8353 57.2371L60.912 56.24L60.9887 55.2429L60.0527 55.1709L59.976 56.168ZM60.912 56.24L60.756 57.2278C60.8782 57.247 60.9687 57.2675 61.0329 57.2861C61.0995 57.3053 61.1203 57.3176 61.1123 57.3132C61.1066 57.3101 61.0373 57.2718 60.9651 57.175C60.8827 57.0644 60.824 56.9127 60.824 56.744H61.824H62.824C62.824 56.1092 62.3918 55.7352 62.0797 55.5628C61.7759 55.3949 61.4124 55.3066 61.068 55.2522L60.912 56.24ZM61.824 56.744L60.8241 56.7312L60.7281 64.2432L61.728 64.256L62.7279 64.2688L62.8239 56.7568L61.824 56.744ZM61.728 64.256L61.1545 63.4368C61.0141 63.5351 60.5484 63.7266 59.5603 63.9533L59.784 64.928L60.0077 65.9027C60.9716 65.6814 61.8019 65.4249 62.3015 65.0752L61.728 64.256ZM59.784 64.928L59.5722 63.9507C58.6975 64.1402 57.6669 64.24 56.472 64.24V65.24V66.24C57.7731 66.24 58.9505 66.1318 59.9958 65.9053L59.784 64.928ZM56.472 65.24V64.24C54.3903 64.24 52.7937 63.576 51.5822 62.2965L50.856 62.984L50.1298 63.6715C51.7663 65.4 53.9137 66.24 56.472 66.24V65.24ZM50.856 62.984L51.5822 62.2965C50.3946 61.0422 49.72 59.1206 49.72 56.36H48.72H47.72C47.72 59.4234 48.4694 61.9178 50.1298 63.6715L50.856 62.984ZM48.72 56.36H49.72C49.72 54.0771 50.3552 52.3145 51.5524 50.9797L50.808 50.312L50.0636 49.6443C48.4768 51.4135 47.72 53.6829 47.72 56.36H48.72ZM50.808 50.312L51.5524 50.9797C52.72 49.6779 54.3555 48.984 56.592 48.984V47.984V46.984C53.9005 46.984 51.68 47.8421 50.0636 49.6443L50.808 50.312ZM56.592 47.984V48.984C57.6469 48.984 58.5715 49.0896 59.3735 49.2901L59.616 48.32L59.8585 47.3499C58.8685 47.1024 57.7771 46.984 56.592 46.984V47.984ZM59.616 48.32L59.3936 49.295C60.256 49.4916 60.6268 49.7238 60.7495 49.8583L61.488 49.184L62.2265 48.5097C61.6772 47.9082 60.8 47.5643 59.8384 47.345L59.616 48.32ZM61.488 49.184L60.4957 49.308C60.5029 49.3655 60.512 49.546 60.512 49.904H61.512H62.512C62.512 49.558 62.5051 49.2585 62.4803 49.06L61.488 49.184ZM61.512 49.904H60.512C60.512 50.0728 60.4442 50.4401 60.2129 51.0724L61.152 51.416L62.0911 51.7596C62.3398 51.0799 62.512 50.4392 62.512 49.904H61.512ZM61.152 51.416L60.2157 51.0649C59.9996 51.641 59.7861 51.983 59.611 52.1672L60.336 52.856L61.061 53.5447C61.4939 53.089 61.8244 52.471 62.0883 51.7671L61.152 51.416ZM60.336 52.856L59.611 52.1673C59.5481 52.2335 59.4946 52.2858 59.4503 52.3261C59.4053 52.3669 59.3751 52.3906 59.3588 52.4023C59.3404 52.4154 59.3512 52.405 59.3883 52.3889C59.4081 52.3803 59.4407 52.3677 59.4848 52.357C59.5289 52.3462 59.5899 52.336 59.664 52.336V53.336V54.336C60.0624 54.336 60.3711 54.1369 60.5212 54.0297C60.7064 53.8975 60.888 53.7269 61.061 53.5447L60.336 52.856ZM59.664 53.336V52.336C59.7467 52.336 59.8022 52.3541 59.8224 52.362C59.8416 52.3694 59.8363 52.3703 59.8055 52.3488L59.232 53.168L58.6585 53.9872C58.9038 54.1589 59.2488 54.336 59.664 54.336V53.336ZM59.232 53.168L59.8964 52.4206C59.5639 52.125 59.0615 51.949 58.6187 51.8225L58.344 52.784L58.0693 53.7455C58.2682 53.8024 58.41 53.8527 58.5051 53.8939C58.6119 53.94 58.6108 53.9538 58.5676 53.9154L59.232 53.168ZM58.344 52.784L58.65 51.832C58.1159 51.6603 57.5805 51.568 57.048 51.568V52.568V53.568C57.3475 53.568 57.6761 53.6197 58.038 53.736L58.344 52.784ZM57.048 52.568V51.568C55.819 51.568 54.7418 51.9747 53.908 52.8299L54.624 53.528L55.34 54.2261C55.7542 53.8013 56.293 53.568 57.048 53.568V52.568ZM54.624 53.528L53.899 52.8392C53.0414 53.742 52.712 55.0342 52.712 56.504H53.712H54.712C54.712 55.2858 54.9906 54.594 55.349 54.2167L54.624 53.528ZM53.712 56.504H52.712C52.712 57.9887 53.0559 59.2874 53.8997 60.2393L54.648 59.576L55.3963 58.9127C54.9921 58.4566 54.712 57.7073 54.712 56.504H53.712ZM54.648 59.576L53.9158 60.2571C54.7136 61.1147 55.6952 61.608 56.832 61.608V60.608V59.608C56.3368 59.608 55.8624 59.4133 55.3802 58.8949L54.648 59.576ZM56.832 60.608V61.608C57.2991 61.608 57.7983 61.5549 58.2152 61.3464C58.4378 61.2351 58.6649 61.0654 58.8341 60.8117C59.0074 60.5517 59.08 60.263 59.08 59.984H58.08H57.08C57.08 59.913 57.1006 59.8063 57.17 59.7023C57.2351 59.6046 57.3062 59.5649 57.3208 59.5576C57.3315 59.5522 57.3041 59.5675 57.2136 59.5826C57.1258 59.5972 57.001 59.608 56.832 59.608V60.608ZM65.4503 60.872V61.872H66.4503V60.872H65.4503ZM65.4503 52.328H66.4503V51.328H65.4503V52.328ZM63.1703 51.296L62.1803 51.4374L62.1817 51.4471L62.1832 51.4567L63.1703 51.296ZM63.1703 49.232L62.1832 49.0713L62.1817 49.0809L62.1803 49.0906L63.1703 49.232ZM72.3623 49.232L71.3718 49.3702L71.3753 49.3948L71.3799 49.4191L72.3623 49.232ZM72.3623 51.296L71.3799 51.1089L71.3753 51.1332L71.3718 51.1578L72.3623 51.296ZM70.2023 52.328V51.328H69.2023V52.328H70.2023ZM70.2023 60.872H69.2023V61.872H70.2023V60.872ZM72.4583 61.904L71.4712 62.0647L71.4734 62.0779L71.4759 62.0911L72.4583 61.904ZM72.4583 63.968L71.4759 63.7809L71.4734 63.7941L71.4712 63.8073L72.4583 63.968ZM63.2423 63.968L64.2327 63.8298L64.2292 63.8052L64.2246 63.7809L63.2423 63.968ZM63.2423 61.904L64.2246 62.0911L64.2292 62.0668L64.2327 62.0422L63.2423 61.904ZM65.4503 60.872H66.4503V52.328H65.4503H64.4503V60.872H65.4503ZM65.4503 52.328V51.328H63.7463V52.328V53.328H65.4503V52.328ZM63.7463 52.328V51.328C63.9064 51.328 64.0498 51.3839 64.1528 51.4602C64.1988 51.4943 64.2291 51.5267 64.2466 51.548C64.264 51.5692 64.2714 51.5826 64.2714 51.5826C64.2716 51.5829 64.2667 51.5741 64.2585 51.5535C64.2503 51.533 64.24 51.504 64.2285 51.4649C64.2051 51.3856 64.1804 51.2775 64.1573 51.1353L63.1703 51.296L62.1832 51.4567C62.2458 51.8412 62.3447 52.2343 62.5251 52.5574C62.7098 52.8884 63.0976 53.328 63.7463 53.328V52.328ZM63.1703 51.296L64.1602 51.1546C64.1191 50.8671 64.0983 50.5704 64.0983 50.264H63.0983H62.0983C62.0983 50.6616 62.1254 51.0529 62.1803 51.4374L63.1703 51.296ZM63.0983 50.264H64.0983C64.0983 49.9576 64.1191 49.6609 64.1602 49.3734L63.1703 49.232L62.1803 49.0906C62.1254 49.4751 62.0983 49.8664 62.0983 50.264H63.0983ZM63.1703 49.232L64.1573 49.3927C64.1804 49.2505 64.2051 49.1424 64.2285 49.0631C64.24 49.024 64.2503 48.995 64.2585 48.9745C64.2667 48.9539 64.2716 48.9451 64.2714 48.9454C64.2714 48.9454 64.264 48.9588 64.2466 48.98C64.2291 49.0013 64.1988 49.0337 64.1528 49.0678C64.0498 49.1441 63.9064 49.2 63.7463 49.2V48.2V47.2C63.0976 47.2 62.7098 47.6396 62.5251 47.9706C62.3447 48.2937 62.2458 48.6868 62.1832 49.0713L63.1703 49.232ZM63.7463 48.2V49.2H71.8103V48.2V47.2H63.7463V48.2ZM71.8103 48.2V49.2C71.6496 49.2 71.5027 49.1437 71.3955 49.0628C71.3478 49.0268 71.3162 48.9923 71.2977 48.9691C71.2793 48.9461 71.2712 48.931 71.2705 48.9297C71.2696 48.9281 71.2738 48.9358 71.2813 48.9557C71.2887 48.9753 71.2982 49.0037 71.3086 49.0424C71.3299 49.1208 71.352 49.2283 71.3718 49.3702L72.3623 49.232L73.3527 49.0938C73.299 48.7095 73.209 48.3135 73.034 47.9863C72.8529 47.6477 72.4656 47.2 71.8103 47.2V48.2ZM72.3623 49.232L71.3799 49.4191C71.4318 49.6917 71.4583 49.973 71.4583 50.264H72.4583H73.4583C73.4583 49.851 73.4207 49.4443 73.3446 49.0449L72.3623 49.232ZM72.4583 50.264H71.4583C71.4583 50.555 71.4318 50.8363 71.3799 51.1089L72.3623 51.296L73.3446 51.4831C73.4207 51.0837 73.4583 50.677 73.4583 50.264H72.4583ZM72.3623 51.296L71.3718 51.1578C71.352 51.2997 71.3299 51.4072 71.3086 51.4856C71.2982 51.5243 71.2887 51.5527 71.2813 51.5723C71.2738 51.5922 71.2696 51.5999 71.2705 51.5983C71.2712 51.597 71.2793 51.5819 71.2977 51.5589C71.3162 51.5357 71.3478 51.5012 71.3955 51.4652C71.5027 51.3843 71.6496 51.328 71.8103 51.328V52.328V53.328C72.4656 53.328 72.8529 52.8803 73.034 52.5417C73.209 52.2145 73.299 51.8185 73.3527 51.4342L72.3623 51.296ZM71.8103 52.328V51.328H70.2023V52.328V53.328H71.8103V52.328ZM70.2023 52.328H69.2023V60.872H70.2023H71.2023V52.328H70.2023ZM70.2023 60.872V61.872H71.8823V60.872V59.872H70.2023V60.872ZM71.8823 60.872V61.872C71.7221 61.872 71.5787 61.8161 71.4757 61.7398C71.4297 61.7057 71.3994 61.6733 71.3819 61.652C71.3645 61.6308 71.3571 61.6174 71.3571 61.6174C71.3569 61.6171 71.3618 61.6259 71.37 61.6465C71.3782 61.667 71.3885 61.696 71.4 61.7351C71.4234 61.8144 71.4481 61.9225 71.4712 62.0647L72.4583 61.904L73.4453 61.7433C73.3827 61.3588 73.2838 60.9657 73.1034 60.6426C72.9187 60.3116 72.5309 59.872 71.8823 59.872V60.872ZM72.4583 61.904L71.4759 62.0911C71.5278 62.3637 71.5543 62.645 71.5543 62.936H72.5543H73.5543C73.5543 62.523 73.5167 62.1163 73.4406 61.7169L72.4583 61.904ZM72.5543 62.936H71.5543C71.5543 63.227 71.5278 63.5083 71.4759 63.7809L72.4583 63.968L73.4406 64.1551C73.5167 63.7557 73.5543 63.349 73.5543 62.936H72.5543ZM72.4583 63.968L71.4712 63.8073C71.4481 63.9495 71.4234 64.0576 71.4 64.1369C71.3885 64.176 71.3782 64.205 71.37 64.2255C71.3618 64.2461 71.3569 64.2549 71.3571 64.2546C71.3571 64.2546 71.3645 64.2412 71.3819 64.22C71.3994 64.1987 71.4297 64.1663 71.4757 64.1322C71.5787 64.0559 71.7221 64 71.8823 64V65V66C72.5309 66 72.9187 65.5604 73.1034 65.2294C73.2838 64.9063 73.3827 64.5132 73.4453 64.1287L72.4583 63.968ZM71.8823 65V64H63.7943V65V66H71.8823V65ZM63.7943 65V64C63.9549 64 64.1018 64.0563 64.209 64.1372C64.2567 64.1732 64.2883 64.2077 64.3068 64.2309C64.3252 64.2539 64.3333 64.269 64.334 64.2703C64.3349 64.2719 64.3307 64.2642 64.3232 64.2443C64.3158 64.2247 64.3063 64.1963 64.2959 64.1576C64.2746 64.0792 64.2525 63.9717 64.2327 63.8298L63.2423 63.968L62.2518 64.1062C62.3055 64.4905 62.3955 64.8865 62.5705 65.2137C62.7516 65.5523 63.1389 66 63.7943 66V65ZM63.2423 63.968L64.2246 63.7809C64.1727 63.5083 64.1463 63.227 64.1463 62.936H63.1463H62.1463C62.1463 63.349 62.1838 63.7557 62.2599 64.1551L63.2423 63.968ZM63.1463 62.936H64.1463C64.1463 62.645 64.1727 62.3637 64.2246 62.0911L63.2423 61.904L62.2599 61.7169C62.1838 62.1163 62.1463 62.523 62.1463 62.936H63.1463ZM63.2423 61.904L64.2327 62.0422C64.2525 61.9003 64.2746 61.7928 64.2959 61.7144C64.3063 61.6757 64.3158 61.6473 64.3232 61.6277C64.3307 61.6078 64.3349 61.6001 64.334 61.6017C64.3333 61.603 64.3252 61.6181 64.3068 61.6411C64.2883 61.6643 64.2567 61.6988 64.209 61.7348C64.1018 61.8157 63.9549 61.872 63.7943 61.872V60.872V59.872C63.1389 59.872 62.7516 60.3197 62.5705 60.6583C62.3955 60.9855 62.3055 61.3815 62.2518 61.7658L63.2423 61.904ZM63.7943 60.872V61.872H65.4503V60.872V59.872H63.7943V60.872ZM72.9793 48.512H71.9793V48.6412L72.0121 48.7661L72.9793 48.512ZM74.0113 48.296L74.1039 49.2917L74.1141 49.2908L74.1242 49.2896L74.0113 48.296ZM78.5233 48.872L77.5379 49.0419L77.5397 49.0529L77.5419 49.0638L78.5233 48.872ZM80.5873 59.432L79.6059 59.6238L81.5708 59.613L80.5873 59.432ZM82.5313 48.872L81.5521 48.6694L81.5498 48.6801L81.5478 48.691L82.5313 48.872ZM87.2593 48.272L87.1688 49.2679L87.1688 49.2679L87.2593 48.272ZM88.3153 48.488L89.2814 48.7463L89.3153 48.6194V48.488H88.3153ZM84.0673 64.376L83.1012 64.1177L83.0991 64.1256L83.0972 64.1335L84.0673 64.376ZM82.6513 64.88L82.5608 63.8841L82.5534 63.8848L82.546 63.8856L82.6513 64.88ZM78.9313 64.976L78.8447 65.9722L78.8524 65.9729L78.8601 65.9735L78.9313 64.976ZM77.1793 64.496L76.2121 64.7501L76.2149 64.7605L76.2178 64.7707L77.1793 64.496ZM72.9793 48.512H73.9793C73.9793 48.8918 73.7696 49.1303 73.6673 49.2231C73.565 49.3159 73.4716 49.3577 73.448 49.3682C73.3938 49.3921 73.3765 49.3905 73.4422 49.3768C73.5569 49.3528 73.769 49.3229 74.1039 49.2917L74.0113 48.296L73.9187 47.3003C73.5656 47.3331 73.2618 47.3712 73.0324 47.4192C72.9261 47.4415 72.7798 47.4769 72.6396 47.5388C72.573 47.5683 72.4474 47.6294 72.3236 47.7417C72.1998 47.854 71.9793 48.1122 71.9793 48.512H72.9793ZM74.0113 48.296L74.1242 49.2896C74.8096 49.2117 75.3442 49.176 75.7393 49.176V48.176V47.176C75.2385 47.176 74.6211 47.2203 73.8984 47.3024L74.0113 48.296ZM75.7393 48.176V49.176C76.6025 49.176 77.181 49.2342 77.5248 49.3201C77.6983 49.3635 77.7485 49.3989 77.7361 49.3904C77.7105 49.3727 77.5761 49.2639 77.5379 49.0419L78.5233 48.872L79.5088 48.7021C79.4305 48.2481 79.1501 47.9363 78.8725 47.7446C78.6082 47.5621 78.3003 47.4525 78.0098 47.3799C77.4257 47.2338 76.6521 47.176 75.7393 47.176V48.176ZM78.5233 48.872L77.5419 49.0638L79.6059 59.6238L80.5873 59.432L81.5687 59.2402L79.5047 48.6802L78.5233 48.872ZM80.5873 59.432L81.5708 59.613L83.5148 49.053L82.5313 48.872L81.5478 48.691L79.6038 59.251L80.5873 59.432ZM82.5313 48.872L83.5106 49.0746C83.4625 49.307 83.3164 49.4059 83.3102 49.4099C83.3065 49.4123 83.3229 49.4014 83.3706 49.3834C83.4172 49.3658 83.484 49.345 83.575 49.3237C83.9581 49.2341 84.5868 49.176 85.5073 49.176V48.176V47.176C84.5398 47.176 83.7286 47.2339 83.1196 47.3763C82.8174 47.447 82.5028 47.5522 82.2324 47.7251C81.9542 47.9031 81.6481 48.205 81.5521 48.6694L82.5313 48.872ZM85.5073 48.176V49.176C85.9298 49.176 86.4811 49.2054 87.1688 49.2679L87.2593 48.272L87.3498 47.2761C86.6296 47.2106 86.0128 47.176 85.5073 47.176V48.176ZM87.2593 48.272L87.1688 49.2679C87.5119 49.2991 87.7311 49.3292 87.8509 49.3537C87.9191 49.3677 87.9047 49.3699 87.8529 49.3476C87.8307 49.338 87.738 49.2976 87.6355 49.2067C87.5346 49.1172 87.3153 48.877 87.3153 48.488H88.3153H89.3153C89.3153 48.079 89.0851 47.819 88.9621 47.71C88.8376 47.5997 88.7119 47.54 88.6457 47.5114C88.5059 47.4511 88.3595 47.4163 88.2517 47.3943C88.0196 47.3468 87.7107 47.3089 87.3498 47.2761L87.2593 48.272ZM88.3153 48.488L87.3492 48.2297L83.1012 64.1177L84.0673 64.376L85.0334 64.6343L89.2814 48.7463L88.3153 48.488ZM84.0673 64.376L83.0972 64.1335C83.1487 63.9273 83.2676 63.8106 83.3224 63.7672C83.3711 63.7287 83.3884 63.7311 83.33 63.7519C83.2111 63.7942 82.9704 63.8469 82.5608 63.8841L82.6513 64.88L82.7418 65.8759C83.2122 65.8331 83.6476 65.7618 84.0006 65.6361C84.2825 65.5358 84.8734 65.2748 85.0375 64.6185L84.0673 64.376ZM82.6513 64.88L82.546 63.8856C81.2325 64.0246 80.0527 64.0536 79.0026 63.9785L78.9313 64.976L78.8601 65.9735C80.0499 66.0585 81.3501 66.0234 82.7566 65.8744L82.6513 64.88ZM78.9313 64.976L79.0179 63.9798C78.4854 63.9334 78.1342 63.8756 77.9295 63.8195C77.8243 63.7907 77.8067 63.7752 77.8346 63.7917C77.8446 63.7977 78.0541 63.9178 78.1408 64.2213L77.1793 64.496L76.2178 64.7707C76.3365 65.1862 76.643 65.4103 76.815 65.5123C77.0049 65.6248 77.2144 65.6973 77.4011 65.7485C77.7805 65.8524 78.2733 65.9226 78.8447 65.9722L78.9313 64.976ZM77.1793 64.496L78.1465 64.2419L73.9465 48.2579L72.9793 48.512L72.0121 48.7661L76.2121 64.7501L77.1793 64.496ZM97.6785 57.752L96.693 57.5821L96.6906 57.5963L96.6886 57.6106L97.6785 57.752ZM94.2465 58.424V57.424H93.2465V58.424H94.2465ZM94.2465 60.824H93.2465V61.824H94.2465V60.824ZM99.2145 61.88L98.2237 62.0151L98.2251 62.0256L98.2267 62.036L99.2145 61.88ZM99.1425 64.184L98.1577 64.0102L98.1577 64.0102L99.1425 64.184ZM94.2465 52.448V51.448H93.2465V52.448H94.2465ZM94.2465 54.872H93.2465V55.872H94.2465V54.872ZM97.3425 54.872V55.872C97.2201 55.872 97.0957 55.8421 96.9836 55.7832C96.8762 55.7266 96.8064 55.6573 96.7666 55.6084C96.6976 55.5238 96.6984 55.4765 96.7194 55.554C96.7597 55.7024 96.7985 56.0146 96.7985 56.552H97.7985H98.7985C98.7985 55.9694 98.7613 55.4416 98.6496 55.03C98.5946 54.8275 98.5004 54.5702 98.3174 54.3456C98.1102 54.091 97.7768 53.872 97.3425 53.872V54.872ZM97.7985 56.552H96.7985C96.7985 56.8135 96.7669 57.1538 96.693 57.5821L97.6785 57.752L98.664 57.9219C98.7501 57.4222 98.7985 56.9625 98.7985 56.552H97.7985ZM97.6785 57.752L96.6886 57.6106C96.6772 57.6899 96.6655 57.7416 96.657 57.7713C96.6478 57.8033 96.6472 57.7933 96.6663 57.7599C96.685 57.727 96.7399 57.642 96.853 57.5628C96.978 57.4753 97.1336 57.424 97.2945 57.424V58.424V59.424C97.8705 59.424 98.2303 59.0539 98.4027 58.7521C98.5597 58.4775 98.63 58.1625 98.6684 57.8934L97.6785 57.752ZM97.2945 58.424V57.424H94.2465V58.424V59.424H97.2945V58.424ZM94.2465 58.424H93.2465V60.824H94.2465H95.2465V58.424H94.2465ZM94.2465 60.824V61.824H98.6625V60.824V59.824H94.2465V60.824ZM98.6625 60.824V61.824C98.4958 61.824 98.3459 61.7642 98.2389 61.6816C98.1915 61.645 98.1606 61.6103 98.143 61.5877C98.134 61.5762 98.1279 61.5671 98.1241 61.561C98.1203 61.555 98.1184 61.5516 98.1183 61.5513C98.1182 61.5511 98.123 61.5604 98.131 61.582C98.1388 61.6034 98.1486 61.6337 98.1594 61.6743C98.1812 61.7567 98.2037 61.8686 98.2237 62.0151L99.2145 61.88L100.205 61.7449C100.152 61.3539 100.063 60.9541 99.8907 60.6247C99.7151 60.2888 99.3299 59.824 98.6625 59.824V60.824ZM99.2145 61.88L98.2267 62.036C98.2655 62.2817 98.2865 62.557 98.2865 62.864H99.2865H100.286C100.286 62.467 100.259 62.0863 100.202 61.724L99.2145 61.88ZM99.2865 62.864H98.2865C98.2865 63.1167 98.2492 63.4921 98.1577 64.0102L99.1425 64.184L100.127 64.3578C100.228 63.7879 100.286 63.2833 100.286 62.864H99.2865ZM99.1425 64.184L98.1577 64.0102C98.1392 64.1153 98.1204 64.1907 98.1044 64.2417C98.0877 64.2949 98.0792 64.3049 98.0886 64.289C98.0971 64.2745 98.1408 64.2036 98.2405 64.133C98.3524 64.0537 98.5006 64 98.6625 64V65V66C99.2647 66 99.6344 65.6057 99.8124 65.303C99.9821 65.0146 100.072 64.6727 100.127 64.3578L99.1425 64.184ZM98.6625 65V64H90.4545V65V66H98.6625V65ZM90.4545 65V64C90.3672 64 90.326 63.9907 90.3179 63.9885C90.312 63.9869 90.3502 63.9964 90.4026 64.0391C90.4593 64.0854 90.5016 64.1455 90.5252 64.2033C90.5463 64.2549 90.5425 64.2797 90.5425 64.256H89.5425H88.5425C88.5425 64.718 88.694 65.2263 89.1384 65.5889C89.5438 65.9196 90.0402 66 90.4545 66V65ZM89.5425 64.256H90.5425V48.824H89.5425H88.5425V64.256H89.5425ZM89.5425 48.824H90.5425C90.5425 48.742 90.5633 48.8673 90.4295 49.0186C90.275 49.1932 90.0986 49.2 90.0945 49.2V48.2V47.2C89.7224 47.2 89.27 47.3108 88.9315 47.6934C88.6137 48.0527 88.5425 48.49 88.5425 48.824H89.5425ZM90.0945 48.2V49.2H98.6865V48.2V47.2H90.0945V48.2ZM98.6865 48.2V49.2C98.352 49.2 98.1534 48.9997 98.0908 48.9113C98.0459 48.8478 98.0615 48.8375 98.0912 48.9636C98.1478 49.2034 98.1905 49.6431 98.1905 50.336H99.1905H100.19C100.19 49.6049 100.149 48.9766 100.038 48.5044C99.9835 48.2745 99.8941 47.9972 99.7232 47.7557C99.5346 47.4893 99.189 47.2 98.6865 47.2V48.2ZM99.1905 50.336H98.1905C98.1905 51.0206 98.1478 51.4533 98.0918 51.6879C98.0624 51.8112 98.0475 51.7987 98.0939 51.7339C98.1587 51.6434 98.3571 51.448 98.6865 51.448V52.448V53.448C99.1839 53.448 99.5293 53.1646 99.7201 52.8981C99.8925 52.6573 99.9826 52.3808 100.037 52.1521C100.149 51.6827 100.19 51.0594 100.19 50.336H99.1905ZM98.6865 52.448V51.448H94.2465V52.448V53.448H98.6865V52.448ZM94.2465 52.448H93.2465V54.872H94.2465H95.2465V52.448H94.2465ZM94.2465 54.872V55.872H97.3425V54.872V53.872H94.2465V54.872ZM116.726 63.704L117.385 64.456L117.391 64.4508L116.726 63.704ZM106.862 63.656L106.22 64.4227L106.23 64.4312L106.862 63.656ZM110.654 60.296L110.158 61.1642L110.166 61.1692L110.175 61.1739L110.654 60.296ZM112.79 60.32L112.308 59.4438L112.298 59.4491L112.289 59.4546L112.79 60.32ZM113.27 48.68H114.27C114.27 49.1358 113.94 49.3316 113.918 49.3442C113.884 49.3625 113.921 49.3364 114.1 49.3033C114.439 49.2405 115.012 49.2 115.862 49.2V48.2V47.2C114.983 47.2 114.261 47.2395 113.736 47.3367C113.483 47.3836 113.195 47.4575 112.946 47.5958C112.708 47.7284 112.27 48.0642 112.27 48.68H113.27ZM115.862 48.2V49.2C116.719 49.2 117.3 49.2405 117.643 49.3036C117.825 49.3368 117.864 49.3634 117.832 49.346C117.813 49.3357 117.478 49.1405 117.478 48.68H118.478H119.478C119.478 48.0595 119.033 47.7243 118.797 47.594C118.547 47.4566 118.259 47.3832 118.004 47.3364C117.476 47.2395 116.748 47.2 115.862 47.2V48.2ZM118.478 48.68H117.478V59.696H118.478H119.478V48.68H118.478ZM118.478 59.696H117.478C117.478 61.0568 117.005 62.1161 116.061 62.9572L116.726 63.704L117.391 64.4508C118.782 63.2119 119.478 61.5992 119.478 59.696H118.478ZM116.726 63.704L116.067 62.9521C115.134 63.7699 113.78 64.24 111.878 64.24V65.24V66.24C114.104 66.24 115.982 65.6861 117.385 64.4559L116.726 63.704ZM111.878 65.24V64.24C110.007 64.24 108.574 63.7609 107.494 62.8808L106.862 63.656L106.23 64.4312C107.742 65.6631 109.653 66.24 111.878 66.24V65.24ZM106.862 63.656L107.504 62.8894C106.471 62.0246 105.942 60.876 105.942 59.336H104.942H103.942C103.942 61.412 104.692 63.1434 106.22 64.4226L106.862 63.656ZM104.942 59.336H105.942V48.704H104.942H103.942V59.336H104.942ZM104.942 48.704H105.942C105.942 49.1598 105.612 49.3556 105.59 49.3682C105.556 49.3865 105.593 49.3604 105.772 49.3273C106.111 49.2645 106.684 49.224 107.534 49.224V48.224V47.224C106.655 47.224 105.933 47.2635 105.408 47.3607C105.155 47.4076 104.867 47.4815 104.618 47.6198C104.38 47.7524 103.942 48.0882 103.942 48.704H104.942ZM107.534 48.224V49.224C108.391 49.224 108.972 49.2645 109.315 49.3276C109.497 49.3608 109.536 49.3874 109.504 49.37C109.485 49.3597 109.15 49.1645 109.15 48.704H110.15H111.15C111.15 48.0835 110.705 47.7483 110.469 47.618C110.219 47.4806 109.931 47.4072 109.676 47.3604C109.148 47.2635 108.42 47.224 107.534 47.224V48.224ZM110.15 48.704H109.15V59.528H110.15H111.15V48.704H110.15ZM110.15 59.528H109.15C109.15 60.2875 109.587 60.8382 110.158 61.1642L110.654 60.296L111.15 59.4278C111.084 59.3899 111.09 59.3773 111.112 59.4113C111.123 59.4285 111.134 59.4508 111.141 59.476C111.149 59.5008 111.15 59.5195 111.15 59.528H110.15ZM110.654 60.296L110.175 61.1739C110.667 61.4423 111.199 61.584 111.758 61.584V60.584V59.584C111.549 59.584 111.345 59.5337 111.133 59.4181L110.654 60.296ZM111.758 60.584V61.584C112.301 61.584 112.821 61.4577 113.291 61.1854L112.79 60.32L112.289 59.4546C112.151 59.5343 111.983 59.584 111.758 59.584V60.584ZM112.79 60.32L113.272 61.1962C113.557 61.0393 113.819 60.8156 114.005 60.5083C114.192 60.199 114.27 59.8606 114.27 59.528H113.27H112.27C112.27 59.5401 112.269 59.5374 112.272 59.5241C112.276 59.5101 112.283 59.4913 112.295 59.4717C112.306 59.4523 112.318 59.4399 112.324 59.4343C112.33 59.4294 112.326 59.4337 112.308 59.4438L112.79 60.32ZM113.27 59.528H114.27V48.68H113.27H112.27V59.528H113.27ZM130.236 49.664L129.552 50.3932L129.557 50.3984L130.236 49.664ZM130.332 58.136L131.123 58.7486L131.123 58.7486L130.332 58.136ZM128.148 59.672L127.777 58.7435L127.777 58.7435L128.148 59.672ZM124.788 60.248V59.248H123.788V60.248H124.788ZM123.876 64.952L123.984 65.9462L123.995 65.945L124.007 65.9435L123.876 64.952ZM124.788 52.376V51.376H123.788V52.376H124.788ZM124.788 56.168H123.788V57.168H124.788V56.168ZM126.516 55.64L127.192 56.3772L127.192 56.3772L126.516 55.64ZM126.684 52.784L125.956 53.4694L125.966 53.4804L125.977 53.4911L126.684 52.784ZM122.34 65.048V64.048C121.63 64.048 121.172 64.0074 120.917 63.9513C120.782 63.9217 120.784 63.9042 120.843 63.9431C120.921 63.9943 121.156 64.1967 121.156 64.568H120.156H119.156C119.156 65.0993 119.483 65.4417 119.742 65.6129C119.983 65.7718 120.258 65.8543 120.488 65.9047C120.961 66.0086 121.595 66.048 122.34 66.048V65.048ZM120.156 64.568H121.156V49.016H120.156H119.156V64.568H120.156ZM120.156 49.016H121.156C121.156 48.8765 121.19 48.9584 121.081 49.0778C121.026 49.1378 120.965 49.1732 120.918 49.1902C120.877 49.2051 120.865 49.2 120.9 49.2V48.2V47.2C120.473 47.2 119.976 47.3214 119.603 47.7302C119.246 48.1216 119.156 48.6115 119.156 49.016H120.156ZM120.9 48.2V49.2H125.124V48.2V47.2H120.9V48.2ZM125.124 48.2V49.2C127.395 49.2 128.787 49.6752 129.552 50.3932L130.236 49.664L130.92 48.9348C129.606 47.7008 127.589 47.2 125.124 47.2V48.2ZM130.236 49.664L129.557 50.3984C130.353 51.1338 130.82 52.2491 130.82 53.912H131.82H132.82C132.82 51.8629 132.231 50.1462 130.915 48.9296L130.236 49.664ZM131.82 53.912H130.82C130.82 55.2136 130.406 56.4085 129.542 57.5234L130.332 58.136L131.123 58.7486C132.243 57.3035 132.82 55.6824 132.82 53.912H131.82ZM130.332 58.136L129.542 57.5234C129.181 57.9888 128.616 58.4077 127.777 58.7435L128.148 59.672L128.52 60.6005C129.6 60.1683 130.491 59.5632 131.123 58.7486L130.332 58.136ZM128.148 59.672L127.777 58.7435C126.959 59.0705 125.97 59.248 124.788 59.248V60.248V61.248C126.166 61.248 127.417 61.0415 128.52 60.6005L128.148 59.672ZM124.788 60.248H123.788V64.544H124.788H125.788V60.248H124.788ZM124.788 64.544H123.788C123.788 64.2988 123.895 64.1091 123.998 63.9977C124.044 63.9479 124.086 63.9172 124.11 63.901C124.135 63.8846 124.151 63.8775 124.152 63.8772C124.153 63.8766 124.145 63.8801 124.126 63.8862C124.107 63.8923 124.081 63.8999 124.045 63.9084C123.972 63.9256 123.874 63.9437 123.746 63.9605L123.876 64.952L124.007 65.9435C124.34 65.8995 124.683 65.8306 124.969 65.7028C125.199 65.5999 125.788 65.2705 125.788 64.544H124.788ZM123.876 64.952L123.769 63.9578C123.2 64.0193 122.726 64.048 122.34 64.048V65.048V66.048C122.819 66.048 123.368 66.0127 123.984 65.9462L123.876 64.952ZM124.788 52.376H123.788V56.168H124.788H125.788V52.376H124.788ZM124.788 56.168V57.168H125.1V56.168V55.168H124.788V56.168ZM125.1 56.168V57.168C125.89 57.168 126.609 56.9116 127.192 56.3772L126.516 55.64L125.84 54.9028C125.655 55.0724 125.43 55.168 125.1 55.168V56.168ZM126.516 55.64L127.192 56.3772C127.828 55.7937 128.092 55.0033 128.092 54.152H127.092H126.092C126.092 54.5807 125.972 54.7823 125.84 54.9028L126.516 55.64ZM127.092 54.152H128.092C128.092 53.4134 127.943 52.6282 127.391 52.0769L126.684 52.784L125.977 53.4911C125.971 53.485 126 53.5097 126.032 53.6158C126.065 53.7254 126.092 53.8977 126.092 54.152H127.092ZM126.684 52.784L127.412 52.0986C126.863 51.5148 126.037 51.376 125.292 51.376V52.376V53.376C125.567 53.376 125.75 53.4045 125.863 53.4376C125.973 53.47 125.981 53.4957 125.956 53.4694L126.684 52.784ZM125.292 52.376V51.376H124.788V52.376V53.376H125.292V52.376ZM137.54 59.96L136.541 59.9195L136.54 59.9397V59.96H137.54ZM134.108 59.984H135.108V59.9637L135.107 59.9435L134.108 59.984ZM133.628 48.152H132.628V48.1723L132.629 48.1925L133.628 48.152ZM138.02 48.128L139.019 48.1685L139.02 48.1483V48.128H138.02ZM137.54 59.96H136.54C136.54 59.4128 136.95 59.1645 137.009 59.13C137.068 59.0957 137.115 59.077 137.139 59.0684C137.165 59.059 137.183 59.0543 137.189 59.0529C137.198 59.0507 137.155 59.0606 137.025 59.0715C136.78 59.0919 136.381 59.104 135.812 59.104V60.104V61.104C136.394 61.104 136.86 61.0921 137.191 61.0645C137.348 61.0514 137.521 61.0313 137.674 60.9931C137.742 60.9761 137.877 60.939 138.017 60.8575C138.112 60.802 138.54 60.5312 138.54 59.96H137.54ZM135.812 60.104V59.104C135.249 59.104 134.852 59.0939 134.604 59.0765C134.544 59.0722 134.498 59.0679 134.464 59.0639C134.428 59.0597 134.416 59.0571 134.421 59.0581C134.424 59.0587 134.438 59.0617 134.459 59.0683C134.479 59.0742 134.522 59.0883 134.576 59.1152C134.623 59.1383 134.732 59.1965 134.841 59.3111C134.959 59.4361 135.108 59.6654 135.108 59.984H134.108H133.108C133.108 60.3126 133.261 60.5516 133.388 60.686C133.506 60.81 133.628 60.8772 133.692 60.9091C133.823 60.9734 133.946 61.0019 134.007 61.0149C134.148 61.0446 134.31 61.0607 134.463 61.0715C134.784 61.0941 135.238 61.104 135.812 61.104V60.104ZM134.108 59.984L135.107 59.9435L134.627 48.1115L133.628 48.152L132.629 48.1925L133.109 60.0245L134.108 59.984ZM133.628 48.152H134.628C134.628 48.6688 134.256 48.9156 134.186 48.9587C134.129 48.9939 134.082 49.0129 134.06 49.0212C134.037 49.0303 134.021 49.0343 134.019 49.0349C134.016 49.0358 134.033 49.0313 134.08 49.0244C134.124 49.018 134.184 49.011 134.261 49.0042C134.58 48.9761 135.09 48.96 135.812 48.96V47.96V46.96C135.077 46.96 134.495 46.9759 134.086 47.0118C133.89 47.0291 133.685 47.0548 133.509 47.1011C133.429 47.1221 133.284 47.1651 133.138 47.2553C133.022 47.3264 132.628 47.6032 132.628 48.152H133.628ZM135.812 47.96V48.96C136.542 48.96 137.063 48.9741 137.392 48.9991C137.472 49.0052 137.535 49.0116 137.583 49.0177C137.607 49.0207 137.625 49.0234 137.639 49.0257C137.646 49.0268 137.651 49.0277 137.654 49.0284C137.658 49.0291 137.659 49.0295 137.659 49.0294C137.659 49.0294 137.656 49.0288 137.652 49.0275C137.647 49.0263 137.639 49.0241 137.629 49.0206C137.611 49.0148 137.569 49.0001 137.515 48.9712C137.467 48.9458 137.362 48.8843 137.259 48.7667C137.146 48.6375 137.02 48.419 137.02 48.128H138.02H139.02C139.02 47.5092 138.524 47.2425 138.455 47.206C138.315 47.1314 138.179 47.0966 138.104 47.0796C137.938 47.0416 137.74 47.0198 137.544 47.0049C137.136 46.9739 136.553 46.96 135.812 46.96V47.96ZM138.02 48.128L137.021 48.0875L136.541 59.9195L137.54 59.96L138.539 60.0005L139.019 48.1685L138.02 48.128ZM133.58 61.4H134.58C134.58 61.691 134.454 61.9095 134.34 62.0387C134.237 62.1563 134.132 62.2178 134.084 62.2432C134.03 62.2721 133.988 62.2868 133.97 62.2926C133.96 62.2961 133.952 62.2983 133.948 62.2995C133.943 62.3008 133.94 62.3014 133.94 62.3014C133.94 62.3015 133.942 62.3011 133.945 62.3004C133.949 62.2997 133.954 62.2988 133.96 62.2977C133.974 62.2954 133.992 62.2927 134.016 62.2897C134.064 62.2836 134.127 62.2772 134.208 62.2711C134.536 62.2461 135.057 62.232 135.788 62.232V61.232V60.232C135.046 60.232 134.463 60.2459 134.056 60.2769C133.86 60.2918 133.662 60.3136 133.495 60.3516C133.421 60.3686 133.284 60.4034 133.144 60.478C133.076 60.5145 132.58 60.7812 132.58 61.4H133.58ZM135.788 61.232V62.232C136.527 62.232 137.059 62.2441 137.397 62.2659C137.573 62.2773 137.661 62.2892 137.69 62.2948C137.713 62.2993 137.657 62.2916 137.573 62.2536C137.533 62.2356 137.426 62.1842 137.316 62.0772C137.197 61.9622 137.02 61.725 137.02 61.376H138.02H139.02C139.02 61.015 138.837 60.7661 138.706 60.64C138.584 60.5216 138.46 60.4594 138.396 60.4309C138.266 60.3719 138.14 60.3447 138.07 60.3312C137.913 60.3008 137.722 60.2827 137.526 60.2701C137.121 60.2439 136.537 60.232 135.788 60.232V61.232ZM138.02 61.376H137.02V64.832H138.02H139.02V61.376H138.02ZM138.02 64.832H137.02C137.02 64.4133 137.275 64.1706 137.383 64.0893C137.442 64.0451 137.492 64.0197 137.519 64.0071C137.547 63.9939 137.567 63.9873 137.573 63.9853C137.58 63.9831 137.523 63.9997 137.355 64.0177C137.038 64.0518 136.524 64.072 135.788 64.072V65.072V66.072C136.54 66.072 137.141 66.0522 137.569 66.0063C137.773 65.9843 137.994 65.9509 138.187 65.8887C138.278 65.8594 138.434 65.8019 138.586 65.6872C138.741 65.5709 139.02 65.2907 139.02 64.832H138.02ZM135.788 65.072V64.072C135.057 64.072 134.531 64.0599 134.197 64.0381C134.023 64.0268 133.937 64.0149 133.91 64.0096C133.887 64.0052 133.944 64.0132 134.029 64.0521C134.07 64.0706 134.177 64.1227 134.288 64.2306C134.406 64.3468 134.58 64.583 134.58 64.928H133.58H132.58C132.58 65.285 132.759 65.5328 132.889 65.6603C133.011 65.7795 133.135 65.8424 133.199 65.8714C133.33 65.9313 133.456 65.9588 133.526 65.9724C133.683 66.0031 133.872 66.0212 134.067 66.0339C134.468 66.0601 135.047 66.072 135.788 66.072V65.072ZM133.58 64.928H134.58V61.4H133.58H132.58V64.928H133.58Z" fill="black" mask="url(#path-3-outside-1_2009_4031)"/>
</g>
<mask id="mask0_2009_4031" style="mask-type:alpha" maskUnits="userSpaceOnUse" x="6" y="30" width="177" height="57">
<path d="M10.9296 32.936C11.0707 31.3914 12.366 30.209 13.9171 30.209H179.363C181.128 30.209 182.511 31.7246 182.351 33.482L177.72 84.1594C177.579 85.7041 176.284 86.8865 174.733 86.8865H9.28663C7.52198 86.8865 6.13849 85.3708 6.29906 83.6135L10.9296 32.936Z" fill="#EFC609"/>
</mask>
<g mask="url(#mask0_2009_4031)">
<rect x="6" y="28.0132" width="179.228" height="6.05811" fill="#FBEF44"/>
<rect x="3.4209" y="82.3726" width="179.228" height="6.05811" fill="#A6552D"/>
<path d="M184.877 40.609L175.428 29.0132H184.877V40.609Z" fill="#FFFEA3"/>
</g>
</g>
<defs>
<filter id="filter0_d_2009_4031" x="0.686523" y="0" width="195.634" height="96.4858" filterUnits="userSpaceOnUse" color-interpolation-filters="sRGB">
<feFlood flood-opacity="0" result="BackgroundImageFix"/>
<feColorMatrix in="SourceAlpha" type="matrix" values="0 0 0 0 0 0 0 0 0 0 0 0 0 0 0 0 0 0 127 0" result="hardAlpha"/>
<feOffset dy="4"/>
<feGaussianBlur stdDeviation="2"/>
<feComposite in2="hardAlpha" operator="out"/>
<feColorMatrix type="matrix" values="0 0 0 0 0 0 0 0 0 0 0 0 0 0 0 0 0 0 0.25 0"/>
<feBlend mode="normal" in2="BackgroundImageFix" result="effect1_dropShadow_2009_4031"/>
<feBlend mode="normal" in="SourceGraphic" in2="effect1_dropShadow_2009_4031" result="shape"/>
</filter>
<filter id="filter1_d_2009_4031" x="4.68652" y="28.6084" width="179.277" height="62.8774" filterUnits="userSpaceOnUse" color-interpolation-filters="sRGB">
<feFlood flood-opacity="0" result="BackgroundImageFix"/>
<feColorMatrix in="SourceAlpha" type="matrix" values="0 0 0 0 0 0 0 0 0 0 0 0 0 0 0 0 0 0 127 0" result="hardAlpha"/>
<feOffset dy="3"/>
<feComposite in2="hardAlpha" operator="out"/>
<feColorMatrix type="matrix" values="0 0 0 0 0 0 0 0 0 0 0 0 0 0 0 0 0 0 0.5 0"/>
<feBlend mode="normal" in2="BackgroundImageFix" result="effect1_dropShadow_2009_4031"/>
<feBlend mode="normal" in="SourceGraphic" in2="effect1_dropShadow_2009_4031" result="shape"/>
</filter>
<filter id="filter2_d_2009_4031" x="47.7197" y="46.96" width="91.2998" height="21.2803" filterUnits="userSpaceOnUse" color-interpolation-filters="sRGB">
<feFlood flood-opacity="0" result="BackgroundImageFix"/>
<feColorMatrix in="SourceAlpha" type="matrix" values="0 0 0 0 0 0 0 0 0 0 0 0 0 0 0 0 0 0 127 0" result="hardAlpha"/>
<feOffset dy="2"/>
<feComposite in2="hardAlpha" operator="out"/>
<feColorMatrix type="matrix" values="0 0 0 0 0 0 0 0 0 0 0 0 0 0 0 0 0 0 1 0"/>
<feBlend mode="normal" in2="BackgroundImageFix" result="effect1_dropShadow_2009_4031"/>
<feBlend mode="normal" in="SourceGraphic" in2="effect1_dropShadow_2009_4031" result="shape"/>
</filter>
</defs>
</svg>
